# xmcd
#
# Track frame offsets:
#	150
#	11129
#	28694
#	43612
#	60203
#	75627
#	97271
#	111734
#	139436
#	153134
#	170967
#	189283
#	207629
#
# Disc length: 2941 seconds
#
# Revision: 1
# Processed by: cddbd v1.5.2PL0 Copyright (c) Steve Scherf et al.
# Submitted via: audiograbber 1.82.01
#
DISCID=ba0b7b0d
DTITLE=The Bellamy Brothers - Gold and More
DYEAR=1900
DGENRE=
TTITLE0=Bird Dog
TTITLE1=Blame It .. on the Fire my Heart
TTITLE2=Dancin' Cowboys
TTITLE3=Feelin' the Feelin
TTITLE4=I need more of you
TTITLE5=If i said you Had a beutiful Boda Would You Holdit Against Me (Sexy Cou
TTITLE5=ntry Mix)
TTITLE6=If i said you Had a beutiful Boda Would You Holdit Against Me 
TTITLE7=Let Your Love Flow (94 Dance Remix)
TTITLE8=Lovin On
TTITLE9=Neon Cowboy
TTITLE10=Old Hippie
TTITLE11=Satin Sheets
TTITLE12=Slippin Away
EXTD=
EXTT0=
EXTT1=
EXTT2=
EXTT3=
EXTT4=
EXTT5=
EXTT6=
EXTT7=
EXTT8=
EXTT9=
EXTT10=
EXTT11=
EXTT12=
PLAYORDER=
